<?xml version="1.0" encoding="utf-8"?>
<!-- Generator: Adobe Illustrator 22.0.1, SVG Export Plug-In . SVG Version: 6.00 Build 0)  -->
<svg version="1.1" id="FS_x5F_PFADE" xmlns="http://www.w3.org/2000/svg" xmlns:xlink="http://www.w3.org/1999/xlink" x="0px"
	 y="0px" viewBox="0 0 1113.2 227.5" style="enable-background:new 0 0 1113.2 227.5;" xml:space="preserve">
<style type="text/css">
	.st0{fill:#113B48;}
	.st1{fill:#009091;}
</style>
<g>
	<g>
		<path class="st0" d="M16.2,77.2c-7.5,0-13.6,6.1-13.6,13.6v117.5c0,7.5,6.1,13.6,13.6,13.6s13.6-6.1,13.6-13.6V90.8
			C29.9,83.3,23.8,77.2,16.2,77.2z"/>
		<path class="st0" d="M302.2,78.8h-38.1V20.2c0-7.5-6.1-13.6-13.6-13.6l0,0c-7.5,0-13.6,6.1-13.6,13.6v71.3c0,1.6,0.3,3.1,0.8,4.5
			c1.5,5.9,6.8,10.2,13,10.2h51.5c35.2,0,42.6,23.5,42.6,43.3s-7.4,43.3-42.6,43.3h-51.5c-7.5,0-13.5,6.1-13.5,13.7
			s6,13.7,13.5,13.7h51.5c42.9,0,70.6-27.1,70.6-70.7S345.1,78.8,302.2,78.8z"/>
		<path class="st1" d="M16.2,6.6L16.2,6.6c-7.5,0-13.6,6.1-13.6,13.6v24.2C2.6,51.9,8.7,58,16.2,58l0,0c7.5,0,13.6-6.1,13.6-13.6
			V20.2C29.9,12.7,23.8,6.6,16.2,6.6z"/>
		<path class="st0" d="M189.1,77.2c-7.4,0-13.4,6-13.4,13.2v62.5c0,34.4-23,41.6-42.3,41.6s-42.3-7.2-42.3-41.6V90.4
			c0-7.3-6-13.2-13.4-13.2s-13.4,5.9-13.4,13.2v62.5c0,41.9,26.5,68.9,69.1,68.9s69.1-27,69.1-68.9V90.4
			C202.5,83.2,196.5,77.2,189.1,77.2z"/>
		<path class="st0" d="M476.5,77.1c-16.6,0-30.8,4.1-41.9,11.6V20.1c0-7.5-6.1-13.6-13.6-13.6s-13.6,6.1-13.6,13.6V146v62.2v0.3
			c0,4.6,2.4,8.6,6,11c2.2,1.5,4.8,2.3,7.6,2.3c7.5,0,13.6-6.1,13.6-13.6v-69.7c3.2-27.9,24.1-34,41.9-34c19.3,0,42.3,7.2,42.3,41.6
			v62.6c0,7.3,6,13.2,13.4,13.2s13.4-5.9,13.4-13.2v-62.6C545.6,104.1,519.1,77.1,476.5,77.1z"/>
	</g>
	<g>
		<path class="st1" d="M610.5,220.2v-36.6H633l-1,6.9h-11.8v8.8h10.3v6.9h-10.3v14L610.5,220.2L610.5,220.2z"/>
		<path class="st1" d="M667.2,183.6l-1,6.9h-12.5v7.8h10.9v6.7h-10.9v8.3H667v6.9h-23v-36.6L667.2,183.6L667.2,183.6z"/>
		<path class="st1" d="M691.9,206.7h-2.7v13.5h-9.8v-36.6h12.7c5.2,0,9,0.9,11.6,2.8c2.5,1.9,3.8,4.7,3.8,8.6c0,2.3-0.5,4.3-1.6,5.8
			s-2.8,2.9-5.1,4.2l9.1,15.3H699L691.9,206.7z M689.2,200.1h3.3c3.4,0,5.1-1.7,5.1-5.1c0-1.6-0.5-2.7-1.4-3.5s-2.3-1.1-4.2-1.1
			h-2.7L689.2,200.1L689.2,200.1z"/>
		<path class="st1" d="M748.9,220.2h-12.3l-9.3-27.6l0.2,1.1c0.4,2.4,0.6,4.7,0.8,6.8c0.2,2.1,0.3,4.5,0.3,7.2v12.4H720v-36.6h12
			l9.6,27.7c-0.4-2.6-0.7-5-1-7.1c-0.2-2.1-0.3-4.5-0.3-7.3v-13.3h8.6L748.9,220.2L748.9,220.2z"/>
		<path class="st1" d="M782.5,183.8c2.1,0.8,4,2,5.7,3.6l-4.4,5.2c-2.5-2-5.2-3-8-3c-1.4,0-2.5,0.3-3.3,0.8s-1.1,1.3-1.1,2.3
			c0,0.7,0.2,1.3,0.6,1.7c0.4,0.5,1,0.9,2,1.3c0.9,0.4,2.4,0.9,4.3,1.6c3.8,1.2,6.5,2.7,8.3,4.5s2.6,4.3,2.6,7.5
			c0,2.3-0.6,4.4-1.8,6.1c-1.2,1.8-2.9,3.2-5.2,4.1s-4.9,1.5-8,1.5c-5.8,0-10.6-1.8-14.3-5.3l4.8-5.3c2.9,2.4,6,3.6,9.1,3.6
			c1.7,0,2.9-0.4,3.8-1.1s1.4-1.7,1.4-2.9c0-0.8-0.2-1.5-0.5-2.1c-0.4-0.5-1-1-1.9-1.5c-0.9-0.4-2.2-0.9-3.9-1.5
			c-4.1-1.3-7.1-2.9-8.8-4.7c-1.7-1.8-2.5-4.1-2.5-6.9c0-2.2,0.6-4.1,1.8-5.7c1.2-1.7,2.8-2.9,4.9-3.8s4.4-1.3,7-1.3
			C777.9,182.6,780.3,183,782.5,183.8z"/>
		<path class="st1" d="M827,183.6l-1,7.4h-8.6v29.2h-9.8V191h-9.2v-7.4H827z"/>
		<path class="st1" d="M866.6,207.9c0,2.5-0.6,4.8-1.7,6.8s-2.8,3.6-5,4.7s-4.9,1.7-8.1,1.7c-4.9,0-8.5-1.2-11-3.6s-3.7-5.6-3.7-9.7
			v-24.4h9.8v24c0,2.2,0.4,3.8,1.2,4.9s2.1,1.6,3.8,1.6c1.8,0,3-0.5,3.8-1.6s1.2-2.7,1.2-4.9v-24h9.8v24.5H866.6z"/>
		<path class="st1" d="M904.5,187.5c3.5,2.6,5.3,7.4,5.3,14.3c0,12.3-6.2,18.5-18.5,18.5h-11.7v-36.6h11
			C896.3,183.6,901,184.9,904.5,187.5z M889.3,190.5v22.7h2.5c2.7,0,4.6-0.8,5.9-2.5s1.9-4.7,1.9-9c0-3-0.3-5.2-0.9-6.9
			s-1.5-2.8-2.6-3.4s-2.6-0.9-4.3-0.9L889.3,190.5L889.3,190.5z"/>
		<path class="st1" d="M931.7,183.6v36.6h-9.8v-36.6H931.7z"/>
		<path class="st1" d="M974.2,207.9c0,2.5-0.6,4.8-1.7,6.8s-2.8,3.6-5,4.7s-4.9,1.7-8.1,1.7c-4.9,0-8.5-1.2-11-3.6s-3.7-5.6-3.7-9.7
			v-24.4h9.8v24c0,2.2,0.4,3.8,1.2,4.9s2.1,1.6,3.8,1.6c1.8,0,3-0.5,3.8-1.6s1.2-2.7,1.2-4.9v-24h9.8v24.5H974.2z"/>
		<path class="st1" d="M1024.7,220.2h-9.6l-0.5-13.7l-0.1-2.3c-0.1-2.1-0.1-3.7-0.1-4.8c0-2.6,0.1-5.3,0.3-7.9l-5,24.8h-9.2
			l-5.3-24.8c0.3,4.1,0.5,7.7,0.5,10.9c0,1.8,0,3.2-0.1,4.1l-0.4,13.7h-9.6l2.7-36.6h12.1l4.9,24.3l4.4-24.3h12.2L1024.7,220.2z"/>
	</g>
	<g>
		<path class="st0" d="M615.4,69.8v36.3h-5V69.8H615.4z"/>
		<path class="st0" d="M659.3,106.1h-6.7l-14.8-30.8c0.2,2.4,0.4,4.7,0.5,6.7s0.2,4.5,0.2,7.5v16.7h-4.7V69.9h6.5l14.9,30.9
			c-0.1-0.9-0.2-2.5-0.4-4.8s-0.3-4.4-0.3-6.3V69.9h4.7L659.3,106.1L659.3,106.1z"/>
		<path class="st0" d="M699.2,69.8l-0.5,4.3h-10.1v32.1h-5V74h-10.3v-4.3h25.9V69.8z"/>
		<path class="st0" d="M732.5,69.8l-0.6,4h-14.1v11.9H730v4h-12.2v12.4h15.1v4h-20.1V69.8L732.5,69.8L732.5,69.8z"/>
		<path class="st0" d="M759.6,90.7H754v15.4h-5V69.8h9.5c4.5,0,8,0.9,10.3,2.6c2.3,1.7,3.5,4.3,3.5,7.7c0,2.5-0.7,4.6-2,6.2
			c-1.3,1.6-3.3,2.8-5.9,3.6l9.8,16.3h-6L759.6,90.7z M759,86.8c2.6,0,4.6-0.5,6-1.6s2-2.8,2-5.2c0-2.2-0.7-3.9-2-4.9
			s-3.5-1.5-6.5-1.5H754v13.2H759z"/>
		<path class="st0" d="M814.1,106.1h-6.7l-14.8-30.8c0.2,2.4,0.4,4.7,0.5,6.7s0.2,4.5,0.2,7.5v16.7h-4.7V69.9h6.5l14.9,30.9
			c-0.1-0.9-0.2-2.5-0.4-4.8s-0.3-4.4-0.3-6.3V69.9h4.7L814.1,106.1L814.1,106.1z"/>
		<path class="st0" d="M851.9,106.1l-2.7-9.1h-13.8l-2.7,9.1h-5.1l11.7-36.3h6.3l11.6,36.3H851.9z M836.6,92.9h11.3l-5.6-19
			L836.6,92.9z"/>
		<path class="st0" d="M892.1,69.8l-0.5,4.3h-10.1v32.1h-5V74h-10.3v-4.3h25.9V69.8z"/>
		<path class="st0" d="M910.7,69.8v36.3h-5V69.8H910.7z"/>
		<path class="st0" d="M950.1,71.3c2.3,1.5,4.1,3.6,5.4,6.4c1.3,2.8,1.9,6.2,1.9,10.2c0,3.9-0.6,7.3-1.9,10.1s-3.1,5-5.4,6.4
			c-2.3,1.5-5,2.2-8,2.2c-3.1,0-5.7-0.7-8-2.2c-2.3-1.4-4.1-3.6-5.4-6.4c-1.3-2.8-1.9-6.2-1.9-10.2c0-3.9,0.6-7.3,1.9-10.1
			s3.1-5,5.4-6.5s5-2.2,8-2.2C945.2,69.1,947.8,69.9,950.1,71.3z M934.7,76.8c-1.8,2.4-2.6,6.1-2.6,11.2c0,5,0.9,8.7,2.7,11.1
			c1.8,2.4,4.2,3.5,7.4,3.5c6.7,0,10-4.9,10-14.7s-3.3-14.7-10-14.7C938.9,73.2,936.5,74.4,934.7,76.8z"/>
		<path class="st0" d="M998.9,106.1h-6.7l-14.8-30.8c0.2,2.4,0.4,4.7,0.5,6.7s0.2,4.5,0.2,7.5v16.7h-4.7V69.9h6.5l14.9,30.9
			c-0.1-0.9-0.2-2.5-0.4-4.8c-0.2-2.3-0.3-4.4-0.3-6.3V69.9h4.7v36.2H998.9z"/>
		<path class="st0" d="M1036.7,106.1L1034,97h-13.8l-2.7,9.1h-5.1l11.7-36.3h6.3l11.6,36.3H1036.7z M1021.4,92.9h11.3l-5.6-19
			L1021.4,92.9z"/>
		<path class="st0" d="M1060.4,69.8v32h14.9l-0.6,4.4h-19.4V69.9L1060.4,69.8L1060.4,69.8z"/>
		<path class="st0" d="M1109.2,69.8l-0.6,4h-14.1v11.9h12.2v4h-12.2v12.4h15.1v4h-20.1V69.8L1109.2,69.8L1109.2,69.8z"/>
		<path class="st0" d="M630.7,162.8v-17h-15.3v17h-5v-36.3h5v15.2h15.3v-15.2h5v36.3H630.7z"/>
		<path class="st0" d="M675.2,128c2.3,1.5,4.1,3.6,5.4,6.4c1.3,2.8,1.9,6.2,1.9,10.2c0,3.9-0.6,7.3-1.9,10.1c-1.3,2.8-3.1,5-5.4,6.4
			c-2.3,1.5-5,2.2-8,2.2c-3.1,0-5.7-0.7-8-2.2c-2.3-1.4-4.1-3.6-5.4-6.4c-1.3-2.8-1.9-6.2-1.9-10.2c0-3.9,0.6-7.3,1.9-10.1
			c1.3-2.8,3.1-5,5.4-6.5c2.3-1.5,5-2.2,8-2.2C670.2,125.8,672.9,126.6,675.2,128z M659.7,133.5c-1.8,2.4-2.6,6.1-2.6,11.2
			c0,5,0.9,8.7,2.7,11.1s4.2,3.5,7.4,3.5c6.7,0,10-4.9,10-14.7c0-9.8-3.3-14.7-10-14.7C664,129.9,661.5,131.1,659.7,133.5z"/>
		<path class="st0" d="M716.7,126.7c1.5,0.6,3,1.5,4.6,2.7l-2.7,3.2c-2.2-1.8-4.6-2.7-7-2.7c-3,0-5.5,1.2-7.3,3.5s-2.8,6-2.8,11.2
			c0,5,0.9,8.7,2.7,11c1.8,2.4,4.3,3.6,7.3,3.6c1.5,0,2.9-0.3,4.1-0.8s2.4-1.3,3.7-2.2l2.5,3.2c-1.1,1.2-2.6,2.1-4.3,2.9
			c-1.8,0.8-3.8,1.2-6.1,1.2c-3,0-5.6-0.7-7.9-2.2c-2.3-1.5-4.1-3.6-5.4-6.4c-1.3-2.8-1.9-6.2-1.9-10.2s0.7-7.4,2-10.2
			c1.3-2.8,3.1-5,5.4-6.4c2.3-1.4,4.8-2.2,7.6-2.2C713.4,125.8,715.2,126.1,716.7,126.7z"/>
		<path class="st0" d="M756.2,162.8v-17h-15.3v17h-5v-36.3h5v15.2h15.3v-15.2h5v36.3H756.2z"/>
		<path class="st0" d="M794.8,126.9c1.7,0.7,3.4,1.7,5,3.2l-2.7,3.1c-1.4-1.1-2.7-1.9-4-2.4s-2.7-0.8-4.2-0.8
			c-1.9,0-3.5,0.4-4.7,1.3s-1.8,2.2-1.8,3.8c0,1.1,0.2,1.9,0.6,2.7c0.4,0.7,1.2,1.4,2.3,2s2.8,1.2,5,1.9c2.3,0.7,4.2,1.5,5.7,2.3
			s2.7,1.9,3.7,3.3c0.9,1.4,1.4,3.2,1.4,5.4c0,2.1-0.5,4-1.6,5.6c-1,1.6-2.5,2.9-4.5,3.8s-4.3,1.4-6.9,1.4c-5,0-9.1-1.6-12.3-4.7
			l2.7-3.1c1.5,1.2,3,2.1,4.5,2.7s3.2,0.9,5.1,0.9c2.2,0,4.1-0.6,5.6-1.7s2.2-2.7,2.2-4.8c0-1.2-0.2-2.2-0.7-3s-1.2-1.5-2.3-2.1
			s-2.7-1.3-4.8-1.9c-3.7-1.1-6.5-2.5-8.2-4.1s-2.6-3.7-2.6-6.4c0-1.8,0.5-3.5,1.5-4.9s2.3-2.6,4.1-3.4c1.7-0.8,3.7-1.2,5.9-1.2
			C791,125.8,793.1,126.2,794.8,126.9z"/>
		<path class="st0" d="M834.4,126.7c1.5,0.6,3,1.5,4.6,2.7l-2.7,3.2c-2.2-1.8-4.6-2.7-7-2.7c-3,0-5.5,1.2-7.3,3.5s-2.8,6-2.8,11.2
			c0,5,0.9,8.7,2.7,11c1.8,2.4,4.3,3.6,7.3,3.6c1.5,0,2.9-0.3,4.1-0.8s2.4-1.3,3.7-2.2l2.5,3.2c-1.1,1.2-2.6,2.1-4.3,2.9
			c-1.8,0.8-3.8,1.2-6.1,1.2c-3,0-5.6-0.7-7.9-2.2c-2.3-1.5-4.1-3.6-5.4-6.4c-1.3-2.8-1.9-6.2-1.9-10.2s0.7-7.4,2-10.2
			c1.3-2.8,3.1-5,5.4-6.4c2.3-1.4,4.8-2.2,7.6-2.2C831.1,125.8,832.9,126.1,834.4,126.7z"/>
		<path class="st0" d="M873.9,162.8v-17h-15.3v17h-5v-36.3h5v15.2h15.3v-15.2h5v36.3H873.9z"/>
		<path class="st0" d="M922.2,151.1c0,2.4-0.5,4.6-1.5,6.4s-2.5,3.3-4.4,4.3s-4.2,1.6-6.9,1.6c-4,0-7.2-1.1-9.4-3.3
			s-3.3-5.2-3.3-8.9v-24.7h5v24.3c0,2.8,0.6,4.9,1.9,6.3s3.2,2.1,5.7,2.1c2.6,0,4.5-0.7,5.8-2.1s1.9-3.5,1.9-6.4v-24.3h5.1v24.7
			H922.2z"/>
		<path class="st0" d="M945.1,126.5v32H960l-0.6,4.4H940v-36.3h5.1V126.5z"/>
		<path class="st0" d="M993.8,126.5l-0.6,4h-14.1v11.9h12.2v4h-12.2v12.4h15.1v4h-20.1v-36.3H993.8z"/>
	</g>
</g>
</svg>
